<?xml version="1.0" encoding="utf-8"?>
<!-- Generator: Adobe Illustrator 23.0.1, SVG Export Plug-In . SVG Version: 6.00 Build 0)  -->
<svg version="1.1" id="Calque_1" xmlns="http://www.w3.org/2000/svg" xmlns:xlink="http://www.w3.org/1999/xlink" x="0px" y="0px"
	 viewBox="0 0 50 20" style="enable-background:new 0 0 50 20;" xml:space="preserve">
<style type="text/css">
	.st0{fill:#010300;}
</style>
<g>
	<g>
		<path class="st0" d="M4.26,11.19c5.98-3,12.43-5.08,19.15-5.78c3.36-0.32,6.8-0.25,10.15,0.5c3.33,0.73,6.63,2.18,9.08,4.6
			c0.17,0.17,0.17,0.44,0,0.6c-0.14,0.14-0.34,0.16-0.5,0.08l-0.01-0.01c-2.9-1.53-5.88-2.62-9.01-3.33
			C30,7.17,26.76,6.85,23.5,6.92C16.98,7.03,10.43,8.8,4.66,11.94c-0.2,0.11-0.46,0.04-0.58-0.16c-0.11-0.2-0.04-0.46,0.16-0.58
			C4.25,11.2,4.26,11.19,4.26,11.19z"/>
	</g>
	<g>
		<path class="st0" d="M44.73,7.61c-0.01,0.85,0.14,1.7,0.42,2.5c0.27,0.8,0.69,1.54,1.23,2.18c0.22,0.26,0.18,0.64-0.07,0.86
			c-0.07,0.06-0.15,0.1-0.24,0.12l-0.23,0.06c-1.02,0.26-2.02,0.51-3.04,0.64c-0.51,0.08-1.02,0.11-1.54,0.09
			c-0.52-0.04-1.05-0.1-1.61-0.32l-0.03-0.01c-0.24-0.1-0.36-0.37-0.27-0.61c0.04-0.09,0.1-0.16,0.17-0.21
			c0.48-0.33,0.99-0.5,1.5-0.66c0.51-0.14,1.04-0.21,1.56-0.25c1.05-0.1,2.11-0.07,3.16-0.04L45.2,13
			c-0.37-0.87-0.65-1.76-0.87-2.65c-0.21-0.89-0.34-1.79-0.44-2.7c-0.03-0.23,0.14-0.44,0.37-0.47c0.23-0.03,0.44,0.14,0.47,0.37
			C44.73,7.58,44.73,7.6,44.73,7.61z"/>
	</g>
</g>
</svg>
